<svg width="29" height="28" viewBox="0 0 29 28" fill="none" xmlns="http://www.w3.org/2000/svg">
<g clip-path="url(#clip0_2_153)">
<path d="M24.0112 5.14173C22.2492 4.33326 20.3597 3.7376 18.3842 3.39645C18.3482 3.38987 18.3122 3.40632 18.2937 3.43923C18.0507 3.87143 17.7815 4.43527 17.593 4.87844C15.4682 4.56033 13.3543 4.56033 11.273 4.87844C11.0845 4.42542 10.8055 3.87143 10.5614 3.43923C10.5429 3.40742 10.5069 3.39096 10.471 3.39645C8.4965 3.73651 6.60702 4.33217 4.84394 5.14173C4.82868 5.14831 4.81559 5.15929 4.80691 5.17354C1.22298 10.5279 0.241192 15.7506 0.722824 20.9085C0.725004 20.9338 0.739169 20.9579 0.758783 20.9732C3.12336 22.7097 5.41385 23.7639 7.66182 24.4627C7.69779 24.4737 7.73591 24.4605 7.75881 24.4309C8.29056 23.7047 8.76458 22.939 9.17099 22.1338C9.19498 22.0867 9.17208 22.0307 9.12306 22.0121C8.3712 21.7269 7.65527 21.3791 6.9666 20.9842C6.91213 20.9524 6.90777 20.8745 6.95788 20.8372C7.1028 20.7286 7.24776 20.6156 7.38614 20.5015C7.41118 20.4807 7.44607 20.4763 7.4755 20.4895C11.9998 22.5551 16.8978 22.5551 21.3687 20.4895C21.3982 20.4752 21.433 20.4796 21.4592 20.5004C21.5976 20.6145 21.7425 20.7286 21.8885 20.8372C21.9386 20.8745 21.9354 20.9524 21.8809 20.9842C21.1922 21.3868 20.4763 21.7269 19.7233 22.011C19.6743 22.0296 19.6525 22.0867 19.6765 22.1338C20.0916 22.9379 20.5657 23.7036 21.0876 24.4298C21.1094 24.4605 21.1486 24.4737 21.1846 24.4627C23.4434 23.7639 25.7339 22.7097 28.0985 20.9732C28.1192 20.9579 28.1323 20.9349 28.1345 20.9096C28.7109 14.9465 27.169 9.76657 24.0471 5.17463C24.0395 5.15929 24.0264 5.14831 24.0112 5.14173ZM9.84662 17.7679C8.48451 17.7679 7.36216 16.5173 7.36216 14.9816C7.36216 13.4458 8.46274 12.1953 9.84662 12.1953C11.2414 12.1953 12.3528 13.4568 12.331 14.9816C12.331 16.5173 11.2305 17.7679 9.84662 17.7679ZM19.0325 17.7679C17.6704 17.7679 16.5481 16.5173 16.5481 14.9816C16.5481 13.4458 17.6486 12.1953 19.0325 12.1953C20.4273 12.1953 21.5387 13.4568 21.5169 14.9816C21.5169 16.5173 20.4273 17.7679 19.0325 17.7679Z" fill="#5865F2"/>
</g>
<defs>
<clipPath id="clip0_2_153">
<rect width="27.6449" height="27.6449" fill="white" transform="translate(0.608582 0.35498)"/>
</clipPath>
</defs>
</svg>
