<svg width="28" height="28" viewBox="0 0 28 28" fill="none" xmlns="http://www.w3.org/2000/svg">
<g clip-path="url(#clip0_2_141)">
<path d="M27.768 14.1774C27.768 6.5435 21.5795 0.35498 13.9455 0.35498C6.3116 0.35498 0.123077 6.5435 0.123077 14.1774C0.123077 21.0765 5.17773 26.795 11.7858 27.832V18.173H8.27617V14.1774H11.7858V11.1322C11.7858 7.66793 13.8494 5.75438 17.0067 5.75438C18.5186 5.75438 20.1009 6.02435 20.1009 6.02435V9.42597H18.3579C16.6409 9.42597 16.1053 10.4915 16.1053 11.5857V14.1774H19.9389L19.326 18.173H16.1053V27.832C22.7134 26.795 27.768 21.0765 27.768 14.1774Z" fill="#1877F2"/>
<path d="M19.3261 18.173L19.9389 14.1775H16.1053V11.5857C16.1053 10.4926 16.6409 9.42599 18.3579 9.42599H20.1009V6.02436C20.1009 6.02436 18.5191 5.75439 17.0067 5.75439C13.8494 5.75439 11.7858 7.66794 11.7858 11.1322V14.1775H8.27618V18.173H11.7858V27.832C13.2169 28.0559 14.6742 28.0559 16.1053 27.832V18.173H19.3261Z" fill="white"/>
</g>
<defs>
<clipPath id="clip0_2_141">
<rect width="27.6449" height="27.6449" fill="white" transform="translate(0.123077 0.35498)"/>
</clipPath>
</defs>
</svg>
