<svg width="67" height="30" viewBox="0 0 67 30" fill="none" xmlns="http://www.w3.org/2000/svg">
<path d="M0.29068 11.8542C0.29068 18.3851 5.65357 23.7002 12.2515 23.7002C15.4427 23.7002 18.4433 22.4679 20.7061 20.2252C21.0211 19.9131 21.3112 19.5845 21.5848 19.2476C22.4634 24.9242 27.4201 29.2945 33.3881 29.2945C36.5793 29.2945 39.5799 28.0623 41.8345 25.8196C43.7243 23.9466 44.8848 21.5643 45.2246 18.993C47.4129 21.8436 50.861 23.7002 54.7402 23.7002C57.9314 23.7002 60.932 22.4679 63.1949 20.2252C65.4577 17.9825 66.701 15.0087 66.701 11.846C66.701 5.31508 61.3381 0 54.7485 0C51.5573 0 48.5567 1.23224 46.2939 3.47493C44.4123 5.33972 43.2436 7.72206 42.9037 10.3016C40.7155 7.45097 37.2673 5.59439 33.3881 5.59439C30.1969 5.59439 27.1963 6.82663 24.9335 9.06931C24.6185 9.38148 24.3367 9.71008 24.0548 10.0469C23.1679 4.37036 18.2195 0 12.2515 0C9.0603 0 6.05973 1.23224 3.79687 3.47493C1.53401 5.71761 0.29068 8.69143 0.29068 11.8542ZM48.076 5.24936C49.8581 3.48314 52.2287 2.50556 54.7485 2.50556C59.9456 2.50556 64.1812 6.70341 64.1812 11.8542C64.1812 14.3515 63.2031 16.6928 61.4127 18.4672C59.6306 20.2334 57.26 21.211 54.7485 21.211C49.5514 21.211 45.3158 17.0132 45.3158 11.8624C45.3158 9.36505 46.2939 7.01557 48.076 5.24936ZM26.7156 10.8437C28.4977 9.07753 30.8683 8.09995 33.3798 8.09995C38.5769 8.09995 42.8125 12.2978 42.8125 17.4486C42.8125 19.9377 41.8345 22.2872 40.0441 24.0616C38.262 25.8278 35.8913 26.8054 33.3798 26.8054C28.1827 26.8054 23.9471 22.6158 23.9471 17.465C23.9471 14.9594 24.9335 12.61 26.7156 10.8437ZM12.2515 2.50556C17.4486 2.50556 21.6842 6.70341 21.6842 11.8542C21.6842 14.3515 20.6979 16.6928 18.9158 18.4672C17.1336 20.2334 14.763 21.211 12.2515 21.211C7.05439 21.211 2.81878 17.0132 2.81878 11.8624C2.81878 9.37327 3.79687 7.02379 5.58726 5.25757C7.36108 3.47493 9.73169 2.50556 12.2515 2.50556Z" fill="white"/>
</svg>
