<svg width="58" height="63" viewBox="0 0 58 63" fill="none" xmlns="http://www.w3.org/2000/svg">
<g clip-path="url(#clip0_2_496)">
<path d="M35.1256 20.7718L29.2517 25.0798L23.3779 20.7718C23.1094 20.5046 22.673 20.5046 22.4045 20.7718C22.136 21.0389 22.136 21.4731 22.4045 21.7402L28.5469 26.3655V30.9239C28.5469 31.2913 28.849 31.6085 29.235 31.6085C29.6042 31.6085 29.923 31.308 29.923 30.9239V26.3822L36.0822 21.7402C36.3507 21.4731 36.3507 21.0389 36.0822 20.7718C35.8137 20.5046 35.3941 20.5046 35.1256 20.7718Z" fill="white"/>
<path d="M4.63194 2.42115C3.07117 3.97403 2.21527 6.04453 2.21527 8.23191C2.21527 12.7737 5.92418 16.4638 10.489 16.4638C12.6875 16.4638 14.7685 15.6122 16.3293 14.0427C17.89 12.4898 18.7627 10.4193 18.7459 8.21521C18.7459 3.69017 15.037 0 10.4722 0C8.27372 0 6.1927 0.868275 4.63194 2.42115ZM16.5642 8.23191C16.5642 9.85158 15.9265 11.3711 14.7853 12.5065C13.6273 13.6586 12.1001 14.2764 10.489 14.2764C7.13252 14.2764 4.41377 11.5714 4.39698 8.23191C4.39698 6.61224 5.03472 5.09276 6.17592 3.95733C7.33391 2.80519 8.8611 2.17069 10.4722 2.17069C13.8287 2.17069 16.5642 4.89239 16.5642 8.23191Z" fill="white"/>
<path d="M1.09086 29.0538H19.8536C20.441 29.0538 20.9277 28.5863 20.9444 28.0019C20.9612 27.7013 21.129 20.7551 16.7488 16.7477C16.3628 16.397 15.7755 16.3803 15.3391 16.6976C15.3056 16.731 10.4387 20.3711 5.92419 16.6976C5.50463 16.3636 4.91725 16.3803 4.51447 16.7143C4.32986 16.8813 0.100694 20.6215 0 27.9518C0 28.2356 0.100694 28.5195 0.318866 28.7366C0.520255 28.9369 0.805555 29.0538 1.09086 29.0538ZM5.35359 18.9852C9.29745 21.59 13.5434 20.3544 15.8762 18.9685C18.1082 21.4731 18.6285 25.1132 18.7459 26.8831H2.24884C2.58449 22.7254 4.39699 20.1039 5.35359 18.9852Z" fill="white"/>
<path d="M47.511 16.4638C49.7263 16.4638 51.7905 15.6122 53.3513 14.0426C54.912 12.4898 55.7847 10.4193 55.7679 8.21519C55.7679 3.67344 52.059 -0.0167236 47.4942 -0.0167236C45.3125 -2.60435e-05 43.2315 0.868249 41.6707 2.42112C40.11 3.974 39.2541 6.0445 39.2541 8.24858C39.2373 12.7736 42.9462 16.4638 47.511 16.4638ZM43.2147 3.9573C44.3727 2.80517 45.8999 2.18736 47.511 2.18736C50.8675 2.18736 53.5862 4.90907 53.603 8.23189C53.603 9.85155 52.9653 11.371 51.8241 12.5065C50.6829 13.6586 49.1557 14.2764 47.5278 14.2764C44.1713 14.2764 41.4526 11.5714 41.4358 8.23189C41.4358 6.61222 42.0567 5.09274 43.2147 3.9573Z" fill="white"/>
<path d="M57.9832 28.0019C58 27.7013 58.1678 20.7551 53.7708 16.7477C53.3848 16.397 52.7807 16.3636 52.3611 16.6809C52.3107 16.7143 47.4606 20.3544 42.9462 16.6976C42.5266 16.3636 41.9392 16.3803 41.5364 16.7143C41.3518 16.8646 37.1227 20.6048 37.022 27.9351C37.022 28.2189 37.1227 28.5028 37.3408 28.7199C37.5422 28.9202 37.8275 29.0371 38.1128 29.0371H56.8756C57.4797 29.0538 57.9664 28.5863 57.9832 28.0019ZM39.2708 26.8831C39.6065 22.7254 41.419 20.1039 42.3923 18.9852C46.3362 21.59 50.5822 20.3544 52.9149 18.9685C55.147 21.4731 55.6672 25.1132 55.7847 26.8831H39.2708Z" fill="white"/>
<path d="M29.2517 33.9462C27.0364 33.9462 24.9722 34.7977 23.4114 36.3673C21.8507 37.9202 20.9948 39.9907 20.9948 42.1948C20.9948 46.7365 24.7037 50.4267 29.2685 50.4267C31.4838 50.4267 33.548 49.5751 35.1088 48.0055C36.6695 46.4527 37.5422 44.3822 37.5255 42.1948C37.5255 37.6363 33.8165 33.9462 29.2517 33.9462ZM33.548 46.4527C32.39 47.6048 30.8796 48.2226 29.2517 48.2226C25.8952 48.2226 23.1765 45.5009 23.1765 42.1781C23.1765 40.5584 23.8142 39.0389 24.9554 37.9035C26.1134 36.7514 27.6406 36.1336 29.2517 36.1336C32.6082 36.1336 35.327 38.8553 35.3437 42.1781C35.327 43.781 34.706 45.3005 33.548 46.4527Z" fill="white"/>
<path d="M19.8704 62.9999H38.6331C39.2205 62.9999 39.7072 62.5324 39.7239 61.948C39.7239 61.6474 39.9086 54.7013 35.5116 50.6938C35.1256 50.3432 34.5214 50.3098 34.1018 50.627C34.0515 50.6604 29.2014 54.3005 24.6701 50.627C24.2506 50.2931 23.6632 50.3098 23.2604 50.6437C23.0758 50.794 18.8466 54.5343 18.7459 61.8645C18.7459 62.1484 18.8634 62.4322 19.0648 62.6493C19.283 62.8831 19.5683 62.9999 19.8704 62.9999ZM24.1331 52.9313C28.077 55.5361 32.3229 54.3005 34.6557 52.9146C36.8877 55.4192 37.408 59.0593 37.5255 60.8293H21.0283C21.3472 56.6716 23.1597 54.05 24.1331 52.9313Z" fill="white"/>
</g>
<defs>
<clipPath id="clip0_2_496">
<rect width="58" height="63" fill="white"/>
</clipPath>
</defs>
</svg>
