<svg width="29" height="28" viewBox="0 0 29 28" fill="none" xmlns="http://www.w3.org/2000/svg">
<g clip-path="url(#clip0_2_149)">
<path d="M14.6485 27.9999C22.2824 27.9999 28.4709 21.8114 28.4709 14.1774C28.4709 6.54351 22.2824 0.35498 14.6485 0.35498C7.01452 0.35498 0.825989 6.54351 0.825989 14.1774C0.825989 21.8114 7.01452 27.9999 14.6485 27.9999Z" fill="url(#paint0_linear_2_149)"/>
<path fill-rule="evenodd" clip-rule="evenodd" d="M7.08281 14.0315C11.1123 12.2759 13.7993 11.1185 15.1438 10.5593C18.9824 8.96263 19.78 8.68528 20.2999 8.67612C20.4143 8.67411 20.6699 8.70245 20.8356 8.83683C20.9754 8.9503 21.0139 9.10358 21.0323 9.21116C21.0507 9.31874 21.0736 9.56381 21.0554 9.7553C20.8474 11.941 19.9473 17.245 19.4894 19.6929C19.2956 20.7288 18.9141 21.0761 18.5447 21.1101C17.742 21.1839 17.1325 20.5796 16.3551 20.07C15.1385 19.2725 14.4512 18.7761 13.2703 17.9979C11.9056 17.0986 12.7903 16.6043 13.5681 15.7965C13.7716 15.5851 17.3083 12.3682 17.3768 12.0764C17.3853 12.0399 17.3933 11.9038 17.3124 11.832C17.2316 11.7601 17.1123 11.7847 17.0263 11.8042C16.9042 11.8319 14.9608 13.1165 11.1959 15.6579C10.6442 16.0367 10.1445 16.2213 9.69687 16.2116C9.20333 16.2009 8.25397 15.9326 7.54822 15.7031C6.68259 15.4218 5.9946 15.273 6.05451 14.7951C6.08571 14.5462 6.42848 14.2917 7.08281 14.0315Z" fill="white"/>
</g>
<defs>
<linearGradient id="paint0_linear_2_149" x1="14.6485" y1="0.35498" x2="14.6485" y2="27.7949" gradientUnits="userSpaceOnUse">
<stop stop-color="#2AABEE"/>
<stop offset="1" stop-color="#229ED9"/>
</linearGradient>
<clipPath id="clip0_2_149">
<rect width="27.6449" height="27.6449" fill="white" transform="translate(0.825989 0.35498)"/>
</clipPath>
</defs>
</svg>
