<svg width="28" height="28" viewBox="0 0 28 28" fill="none" xmlns="http://www.w3.org/2000/svg">
<g clip-path="url(#clip0_2_144)">
<path d="M8.86555 25.409C18.9996 25.409 24.5425 16.7661 24.5425 9.27098C24.5425 9.0255 24.5425 8.78112 24.5264 8.53784C25.6047 7.73493 26.5355 6.74079 27.2752 5.60195C26.2697 6.06086 25.203 6.36167 24.1106 6.49433C25.2609 5.78557 26.1218 4.67066 26.533 3.35718C25.4514 4.0179 24.2682 4.48351 23.0343 4.7339C22.2036 3.82458 21.1049 3.22246 19.9082 3.0207C18.7116 2.81894 17.4837 3.0288 16.4146 3.6178C15.3454 4.20679 14.4947 5.14209 13.994 6.27896C13.4933 7.41583 13.3705 8.69088 13.6447 9.90682C11.4541 9.7937 9.31116 9.20767 7.35488 8.18675C5.3986 7.16584 3.67272 5.73287 2.28928 3.98085C1.5847 5.22947 1.3689 6.70759 1.68582 8.11425C2.00274 9.52091 2.82855 10.7503 3.99511 11.5522C3.11824 11.5258 2.26046 11.2823 1.49437 10.8423V10.9142C1.49472 12.2237 1.93507 13.4928 2.74075 14.5062C3.54642 15.5195 4.66781 16.2148 5.91471 16.4741C5.10356 16.7019 4.25247 16.7352 3.42686 16.5715C3.77908 17.6984 4.46457 18.6838 5.3875 19.39C6.31043 20.0962 7.42467 20.4879 8.57444 20.5103C7.43207 21.4347 6.12386 22.1181 4.72467 22.5215C3.32548 22.9249 1.86275 23.0403 0.420166 22.8612C2.93988 24.5257 5.87166 25.4086 8.86555 25.4046" fill="#1DA1F2"/>
</g>
<defs>
<clipPath id="clip0_2_144">
<rect width="26.8551" height="27.6449" fill="white" transform="translate(0.420166 0.35498)"/>
</clipPath>
</defs>
</svg>
