<svg width="28" height="28" viewBox="0 0 28 28" fill="none" xmlns="http://www.w3.org/2000/svg">
<g clip-path="url(#clip0_2_146)">
<path d="M27.1522 7.47991C26.9959 6.89178 26.6879 6.35501 26.2589 5.92333C25.83 5.49165 25.2952 5.1802 24.7081 5.02014C22.5468 4.43896 13.9077 4.43896 13.9077 4.43896C13.9077 4.43896 5.26871 4.43896 3.10737 5.02014C2.52026 5.1802 1.98548 5.49165 1.55655 5.92333C1.12763 6.35501 0.819606 6.89178 0.663312 7.47991C0.0852814 9.65066 0.0852814 14.1775 0.0852814 14.1775C0.0852814 14.1775 0.0852814 18.7044 0.663312 20.8751C0.819606 21.4633 1.12763 22 1.55655 22.4317C1.98548 22.8634 2.52026 23.1748 3.10737 23.3349C5.26871 23.9161 13.9077 23.9161 13.9077 23.9161C13.9077 23.9161 22.5468 23.9161 24.7081 23.3349C25.2952 23.1748 25.83 22.8634 26.2589 22.4317C26.6879 22 26.9959 21.4633 27.1522 20.8751C27.7302 18.7044 27.7302 14.1775 27.7302 14.1775C27.7302 14.1775 27.7302 9.65066 27.1522 7.47991Z" fill="#FF0302"/>
<path d="M11.0804 18.2881V10.0669L18.3058 14.1775L11.0804 18.2881Z" fill="#FEFEFE"/>
</g>
<defs>
<clipPath id="clip0_2_146">
<rect width="27.6449" height="27.6449" fill="white" transform="translate(0.0578613 0.35498)"/>
</clipPath>
</defs>
</svg>
